<svg xmlns="http://www.w3.org/2000/svg" viewBox="0 0 98.5 108.09"><defs><style>.cls-1{fill:#343a40;}</style></defs><title>Jungle</title><g id="Layer_2" data-name="Layer 2"><g id="Layer_1-2" data-name="Layer 1"><path class="cls-1" d="M0,29.78c10,12.43,13.05,27,14.69,42.06A8.86,8.86,0,0,0,18.1,78a214.07,214.07,0,0,1,28,28c3,3.59,4.12,2.14,5.39-1.29,4.67-12.63,4.78-25.44,1.89-38.42-5.15-23.1-17-43.08-29.42-62.75a5.36,5.36,0,0,0-4.28-3c2.47,6.53,4.83,12.71,7.15,18.9A95.7,95.7,0,0,1,32.1,39.72a94.52,94.52,0,0,1,.22,20.93C21.49,41,9.77,29.82,0,29.78Zm98.5-.06C83.36,32.48,64.15,70.57,67.11,92.87c5.24-5.69,9.63-10.49,14.07-15.25,1.24-1.33,2.52-2.6,2.71-4.53C85.42,57.73,88.61,42.89,98.5,29.71ZM61.76,60.47l1.71,0c3.9-20.42,6.42-41.2,15-60.51-1.36.1-2.14.39-2.54,1C68.31,11.77,60.8,22.67,55.33,34.81c-.75,1.66-1.72,3.41-1.1,5.18C56.64,46.85,59.24,53.65,61.76,60.47Z"/><path class="cls-1" d="M0,29.78c9.77,0,21.49,11.22,32.32,30.88a94.52,94.52,0,0,0-.22-20.93,95.7,95.7,0,0,0-5.32-20.29C24.45,13.24,22.1,7.06,19.63.54a5.36,5.36,0,0,1,4.28,3C36.38,23.21,48.19,43.19,53.33,66.29c2.89,13,2.78,25.79-1.89,38.42-1.27,3.43-2.35,4.87-5.39,1.29a214.07,214.07,0,0,0-28-28,8.86,8.86,0,0,1-3.4-6.12C13.05,56.79,10,42.21,0,29.78Z"/><path class="cls-1" d="M98.5,29.71c-9.89,13.18-13.08,28-14.61,43.38-.19,1.93-1.47,3.2-2.71,4.53-4.44,4.76-8.83,9.56-14.07,15.25C64.15,70.57,83.36,32.48,98.5,29.71Z"/><path class="cls-1" d="M61.76,60.47C59.24,53.65,56.64,46.85,54.23,40c-.63-1.78.35-3.53,1.1-5.18,5.47-12.14,13-23,20.62-33.86.4-.56,1.19-.85,2.54-1-8.6,19.31-11.12,40.09-15,60.51Z"/></g></g></svg>