<svg xmlns="http://www.w3.org/2000/svg" viewBox="0 0 115.83 97.97"><defs><style>.cls-1{fill:#343a40;}</style></defs><title>Support</title><g id="Layer_2" data-name="Layer 2"><g id="Layer_1-2" data-name="Layer 1"><polygon class="cls-1" points="71.83 0 57.83 0 43.83 0 40.83 6 56.87 26.03 57.83 26.03 58.8 26.03 74.83 6 71.83 0"/><polygon class="cls-1" points="68.75 30.89 68.75 32.97 76 54.88 91.67 48.97 91.67 47.3 82.67 35.97 82.75 33.88 95.67 33.88 115.83 21.05 79.08 21.05 68.75 30.89"/><polygon class="cls-1" points="47.08 30.89 47.08 32.97 39.83 54.88 24.17 48.97 24.17 47.3 33.17 35.97 33.08 33.88 20.17 33.88 0 21.05 36.75 21.05 47.08 30.89"/><polygon class="cls-1" points="60.92 36.05 57.83 39.13 54.75 36.05 44.67 88.05 57.83 97.97 71 88.05 60.92 36.05"/></g></g></svg>